HIERARCHY
ROOT Hips
{
	OFFSET -0.179506 -22.333345 2.821913
	CHANNELS 6 Xposition Yposition Zposition Zrotation Yrotation Xrotation 
	JOINT LeftUpLeg
	{
		OFFSET 6.951974 -9.140623 -0.681533
		CHANNELS 3 Zrotation Yrotation Xrotation
		JOINT LeftLeg
		{
			OFFSET 3.427654 -37.519855 -0.449580
			CHANNELS 3 Zrotation Yrotation Xrotation
			JOINT LeftFoot
			{
				OFFSET -1.359570 -39.796059 -4.369333
				CHANNELS 3 Zrotation Yrotation Xrotation
				JOINT LeftToe
				{
					OFFSET 2.635814 -5.579078 11.928840
					CHANNELS 3 Zrotation Yrotation Xrotation
					End Site
					{
						OFFSET 0.000000 0.000000 0.000000
					}
				}
			}
		}
	}
	JOINT RightUpLeg
	{
		OFFSET -6.767048 -9.052170 -0.431982
		CHANNELS 3 Zrotation Yrotation Xrotation
		JOINT RightLeg
		{
			OFFSET -3.829005 -38.256897 -0.885003
			CHANNELS 3 Zrotation Yrotation Xrotation
			JOINT RightFoot
			{
				OFFSET 1.577377 -39.841461 -4.231180
				CHANNELS 3 Zrotation Yrotation Xrotation
				JOINT RightToe
				{
					OFFSET -2.537174 -4.814398 12.334795
					CHANNELS 3 Zrotation Yrotation Xrotation
					End Site
					{
						OFFSET 0.000000 0.000000 0.000000
					}
				}
			}
		}
	}
	JOINT Spine
	{
		OFFSET -0.253288 10.896323 -2.669631
		CHANNELS 3 Zrotation Yrotation Xrotation
		JOINT Spine1
		{
			OFFSET 0.548704 13.518043 0.109247
			CHANNELS 3 Zrotation Yrotation Xrotation
			JOINT Spine2
			{
				OFFSET 0.145701 5.292222 2.542457
				CHANNELS 3 Zrotation Yrotation Xrotation
				JOINT Neck
				{
					OFFSET -0.277840 21.387037 -4.285703
					CHANNELS 3 Zrotation Yrotation Xrotation
					JOINT Head
					{
						OFFSET 0.515184 6.496960 5.134897
						CHANNELS 3 Zrotation Yrotation Xrotation
						End Site
						{
							OFFSET 0.000000 0.000000 0.000000
						}
					}
				}
				JOINT LeftShoulder
				{
					OFFSET 7.884473 12.174932 -3.408961
					CHANNELS 3 Zrotation Yrotation Xrotation
					JOINT LeftArm
					{
						OFFSET 9.097692 3.046888 -0.886815
						CHANNELS 3 Zrotation Yrotation Xrotation
						JOINT LeftForeArm
						{
							OFFSET 25.961220 -1.277207 -2.745643
							CHANNELS 3 Zrotation Yrotation Xrotation
							JOINT LeftHand
							{
								OFFSET 24.923361 0.898606 -0.117091
								CHANNELS 3 Zrotation Yrotation Xrotation
								End Site
								{
									OFFSET 0.000000 0.000000 0.000000
								}
							}
						}
					}
				}
				JOINT RightShoulder
				{
					OFFSET -8.175920 11.883285 -3.861528
					CHANNELS 3 Zrotation Yrotation Xrotation
					JOINT RightArm
					{
						OFFSET -9.601238 3.255117 -0.914307
						CHANNELS 3 Zrotation Yrotation Xrotation
						JOINT RightForeArm
						{
							OFFSET -25.374195 -1.332924 -2.140099
							CHANNELS 3 Zrotation Yrotation Xrotation
							JOINT RightHand
							{
								OFFSET -25.529810 0.777228 -0.555919
								CHANNELS 3 Zrotation Yrotation Xrotation
								End Site
								{
									OFFSET 0.000000 0.000000 0.000000
								}
							}
						}
					}
				}
			}
		}
	}
}
MOTION
Frames: 8
Frame Time: 0.033333
-38.992805 22.832159 49.722382 172.791755 -0.331812 120.116932 18.663376 26.308953 -79.455782 -11.917514 26.253760 130.729358 8.125177 -18.025585 -43.966012 nan nan nan -16.226606 -23.994774 -73.930595 2.366854 -16.401696 129.199627 -0.181613 21.171023 -47.826730 nan nan nan 5.271542 2.714927 80.126606 0.838289 -4.358457 -8.812128 4.926384 -0.852656 -5.506816 -9.549628 3.329390 15.570097 12.686960 -3.340168 -32.104306 9.141216 -43.672518 -10.580253 -7.156844 -12.379225 -10.274494 -2.931424 -30.749585 10.257240 59.346623 -18.719065 -15.848321 -14.717884 40.592850 -5.091464 3.052645 15.787565 -25.853342 5.122923 29.805981 22.854842 -57.886212 20.577649 13.725080 
-39.123440 22.313702 49.300022 172.657017 -0.180031 119.594678 19.058098 26.330955 -79.067576 -11.584271 26.043672 131.449215 8.823231 -18.600803 -45.049957 nan nan nan -16.550170 -24.436001 -74.132955 2.291841 -16.227904 130.188595 0.121018 22.735440 -47.685213 nan nan nan 5.425418 2.533286 81.178662 0.477455 -4.054980 -10.661294 4.866846 -0.870074 -4.166782 -9.069407 3.594725 13.670481 12.781601 -3.779526 -32.649581 11.406095 -40.863637 -11.912993 -9.231407 -15.448413 -11.272757 -2.962111 -30.472583 12.755367 58.941102 -17.962889 -18.256988 -16.946118 36.717025 -7.541270 5.645087 19.668938 -25.726717 4.564074 28.873032 25.008395 -56.451165 20.282589 13.892738 
-39.257141 21.790010 48.904640 172.575652 0.043232 119.058163 19.327009 26.449565 -78.865940 -11.506737 25.999937 132.139189 9.053112 -18.672214 -46.042173 nan nan nan -16.653426 -24.900409 -74.428545 2.278196 -16.270263 131.035184 0.008891 23.362917 -47.553587 nan nan nan 5.588357 2.604411 81.156829 0.388350 -3.778856 -11.149652 4.934174 -0.949182 -3.730546 -8.797753 3.745270 13.903507 12.747794 -3.969376 -32.844272 11.685810 -40.653292 -11.905504 -9.531484 -16.059990 -11.500120 -3.054605 -30.133507 13.105684 58.590941 -17.629480 -18.669982 -17.109294 36.066863 -7.831979 5.913309 20.560250 -25.662269 4.025443 28.178869 24.966192 -59.924918 20.635840 13.192527 
-39.371395 21.278517 48.494526 172.480635 0.292436 118.400740 19.540401 26.682173 -78.678309 -11.445867 26.056880 132.864509 9.555891 -18.448367 -46.874852 nan nan nan -16.745045 -25.375726 -74.718044 2.305040 -16.502398 131.865994 -0.192826 23.429721 -47.457148 nan nan nan 5.512328 2.520282 81.326335 0.361208 -3.792072 -11.269099 4.871746 -0.629996 -3.742916 -8.780939 3.673360 13.786811 12.752482 -3.912584 -32.595926 11.670576 -40.632640 -12.020970 -9.556655 -15.947220 -11.364864 -3.046852 -30.325386 13.217569 58.095345 -17.492358 -18.632936 -16.556444 36.736828 -6.666166 5.200875 19.804943 -26.046954 3.369628 29.088757 24.091680 -59.816399 20.188674 12.550223 
-39.488182 20.758707 48.107868 172.442712 0.532921 117.616914 19.779764 26.897331 -78.443193 -11.296314 26.108885 133.605851 10.035488 -18.142336 -47.567590 nan nan nan -16.867532 -25.880110 -74.881206 2.488982 -16.746467 132.640196 -0.258013 23.631873 -47.167975 nan nan nan 5.565083 2.444858 81.468764 0.352429 -3.752958 -11.156961 4.850959 -0.488065 -3.796742 -8.696983 3.455625 13.516868 12.654064 -3.777860 -32.107427 11.759501 -40.615032 -12.270155 -9.713221 -15.950823 -11.255152 -2.759293 -30.359498 12.992818 57.507844 -17.386563 -18.486775 -16.408473 37.234204 -6.229031 4.725575 19.382544 -26.341043 3.095870 29.455274 22.947570 -58.005522 19.461122 12.255691 
-39.587330 20.231140 47.736900 172.369711 0.808169 116.854438 20.088937 27.149006 -78.217366 -11.083457 26.139074 134.374888 10.081326 -17.936623 -48.260037 nan nan nan -17.001841 -26.343232 -75.009571 2.669531 -16.904710 133.309969 -0.365400 24.129111 -47.047418 nan nan nan 5.615897 2.446495 81.527940 0.385598 -3.716230 -11.016799 4.796294 -0.395983 -3.806409 -8.380340 3.656092 13.398813 12.559575 -3.879468 -31.871920 11.926151 -40.522630 -12.548280 -9.935942 -16.035071 -11.140098 -2.429370 -30.270424 12.539076 56.614250 -17.115943 -18.549074 -16.135561 37.267666 -6.570009 4.290388 20.015192 -26.885924 3.239899 28.560544 22.714488 -55.721974 18.993880 13.824241 
-39.658367 19.767189 47.402584 172.221924 1.149457 116.338658 20.132800 27.655045 -78.325587 -10.794622 26.022519 135.060585 10.112733 -17.602784 -48.875411 nan nan nan -16.777792 -26.637214 -75.436437 2.750877 -16.905552 133.795757 -0.952951 24.284569 -47.265391 nan nan nan 5.748671 2.251553 81.269749 0.057316 -3.404522 -11.063706 4.814115 -0.902609 -4.050900 -8.930294 3.099975 14.948782 12.651314 -2.917398 -32.013782 11.348404 -41.350767 -12.595605 -9.968592 -14.755166 -11.006086 -2.392803 -30.265336 11.720392 55.086123 -16.966122 -17.928266 -17.204742 38.506618 -7.284137 5.322182 19.878878 -27.037127 3.089784 27.332742 22.044326 -53.579363 18.673953 16.017856 
-39.732826 19.137051 47.125568 172.088555 1.537580 115.322177 20.325378 28.426446 -78.247004 -10.676491 26.402737 135.731686 10.112840 -16.642088 -48.957528 nan nan nan -16.547355 -26.831446 -75.447771 3.303437 -17.264959 134.065778 -1.295950 23.855638 -47.149406 nan nan nan 5.489687 2.329056 80.929228 0.246450 -3.493475 -9.874143 4.807351 -0.442542 -4.416883 -9.057056 3.347144 14.988448 12.575929 -2.991721 -31.100468 10.619262 -42.740765 -12.156176 -8.285167 -12.934703 -10.818503 -3.067702 -30.567444 10.196466 54.362214 -16.821635 -17.012588 -16.041630 40.619795 -6.096005 2.914782 18.151251 -27.904590 3.779723 27.206196 21.505307 -52.338473 18.295636 16.825735 
